<svg width="56" height="53" viewBox="0 0 56 53" fill="none" xmlns="http://www.w3.org/2000/svg">
<path d="M43.9147 11.5533C41.7963 9.56681 39.2757 7.9946 36.4999 6.92836C33.724 5.86213 30.7486 5.3232 27.7471 5.34302C15.1706 5.38512 4.95267 14.9989 4.99201 26.7525C5.00462 30.5197 6.07642 34.1757 8.06814 37.3981L4.88045 48.4737L16.9632 45.4625C20.3088 47.1519 24.0664 48.0435 27.89 48.0307C40.4664 47.9886 50.6844 38.3749 50.645 26.6212C50.6259 20.9166 48.2355 15.5644 43.9147 11.5533ZM27.8779 44.4142C24.4689 44.4256 21.1261 43.5757 18.1954 41.971L17.5031 41.5858L10.3224 43.3751L12.2123 36.8245L11.7494 36.1587C9.84601 33.3385 8.8294 30.0747 8.81561 26.7397C8.7829 16.9665 17.2787 8.97309 27.7361 8.93808C32.8035 8.92112 37.5777 10.7565 41.1592 14.1027C42.9325 15.7413 44.34 17.6928 45.3001 19.8439C46.2602 21.9951 46.7538 24.3031 46.7523 26.6342C46.8311 36.4073 38.3352 44.3792 27.8779 44.4142ZM38.2447 31.1188C37.668 30.8624 34.8536 29.5802 34.3462 29.3882C33.8158 29.2177 33.447 29.1329 33.0572 29.6508C32.6674 30.1903 31.5888 31.3994 31.2675 31.7449C30.9463 32.112 30.6009 32.1562 30.0241 31.8783C29.4474 31.6219 27.6028 31.0468 25.4315 29.2458C23.7223 27.8307 22.5878 26.0909 22.2405 25.5538C21.9162 25.0167 22.1917 24.736 22.4902 24.4551C22.7428 24.2175 23.0639 23.8289 23.3393 23.5266C23.6147 23.2243 23.7291 22.9871 23.9122 22.6421C24.0953 22.2755 24.0021 21.9745 23.8631 21.7166C23.724 21.4587 22.5635 18.8363 22.0992 17.7615C21.6351 16.7298 21.1518 16.8606 20.8062 16.8402L19.7006 16.8439C19.309 16.8452 18.7106 16.9764 18.1826 17.5163C17.6777 18.0562 16.2078 19.3527 16.2166 21.979C16.2254 24.6053 18.2839 27.1386 18.5615 27.4821C18.8391 27.8471 22.6116 33.2162 28.3317 35.5005C29.6926 36.0556 30.7532 36.375 31.5832 36.609C32.9436 37.0135 34.1872 36.9447 35.1772 36.8122C36.2823 36.6578 38.5589 35.5093 39.0154 34.2592C39.4949 33.009 39.4914 31.9542 39.3293 31.718C39.1673 31.4817 38.8214 31.3752 38.2447 31.1188Z" fill="#1167B1"/>
</svg>
